<?xml version="1.0" encoding="utf-8"?>
<!-- Generator: Adobe Illustrator 18.0.0, SVG Export Plug-In . SVG Version: 6.00 Build 0)  -->
<!DOCTYPE svg PUBLIC "-//W3C//DTD SVG 1.1//EN" "http://www.w3.org/Graphics/SVG/1.1/DTD/svg11.dtd">
<svg class="arrowNext" version="1.1" id="Layer_1" xmlns="http://www.w3.org/2000/svg" xmlns:xlink="http://www.w3.org/1999/xlink" x="0px" y="0px"
	 viewBox="0 0 45.8 45.8" enable-background="new 0 0 45.8 45.8" xml:space="preserve">
<g>
	<path fill="#F9531C" d="M32.4,23.7H12.1c-0.4,0-0.6-0.4-0.6-0.9c0-0.5,0.3-0.9,0.6-0.9h20.3c0.4,0,0.6,0.4,0.6,0.9
		C33.1,23.3,32.8,23.7,32.4,23.7z"/>
	<path fill="#F9531C" d="M22.9,45.8C10.3,45.8,0,35.5,0,22.9S10.3,0,22.9,0s22.9,10.3,22.9,22.9S35.5,45.8,22.9,45.8z M22.9,1.7
		c-11.7,0-21.1,9.5-21.1,21.1C1.7,34.5,11.2,44,22.9,44C34.5,44,44,34.5,44,22.9C44,11.2,34.5,1.7,22.9,1.7z"/>
	<polygon fill="#F9531C" points="29.9,16.3 36.5,22.9 29.9,29.4 	"/>
</g>
</svg>
