<?xml version="1.0" encoding="utf-8"?>
<!-- Generator: Adobe Illustrator 18.0.0, SVG Export Plug-In . SVG Version: 6.00 Build 0)  -->
<!DOCTYPE svg PUBLIC "-//W3C//DTD SVG 1.1//EN" "http://www.w3.org/Graphics/SVG/1.1/DTD/svg11.dtd">
<svg version="1.1" id="Layer_1" xmlns="http://www.w3.org/2000/svg" xmlns:xlink="http://www.w3.org/1999/xlink" x="0px" y="0px"
	 viewBox="0 0 28.5 28.5" enable-background="new 0 0 28.5 28.5" xml:space="preserve">
<g opacity="0.8">
	<path fill="#FFFFFF" d="M14.3,0C6.4,0,0,6.4,0,14.3c0,7.9,6.4,14.3,14.3,14.3c7.9,0,14.3-6.4,14.3-14.3C28.5,6.4,22.1,0,14.3,0z
		 M14.8,26v-2h-1.7v2C8,25.6,3,20.5,2.6,15.5h2v-1.7h-2C3,8,8,3,13.1,2.6v3h1.7v-3C20.5,3,25.6,8,26,13.8h-3v1.7h3
		C25.6,20.5,20.5,25.6,14.8,26z"/>
	<path fill="#FFFFFF" d="M14.3,12.7C14.3,12.7,14.2,12.7,14.3,12.7c-0.3,0-0.5,0-0.6,0.1l-5-3.6l4,5.3c0.1,0.8,0.8,1.4,1.6,1.4
		c0.9,0,1.6-0.7,1.6-1.6c0-0.1,0-0.2,0-0.3l6.2-7.5L14.3,12.7z"/>
</g>
</svg>
