<?xml version="1.0" encoding="utf-8"?>
<!-- Generator: Adobe Illustrator 18.0.0, SVG Export Plug-In . SVG Version: 6.00 Build 0)  -->
<!DOCTYPE svg PUBLIC "-//W3C//DTD SVG 1.1//EN" "http://www.w3.org/Graphics/SVG/1.1/DTD/svg11.dtd">
<svg version="1.1" id="Layer_1" xmlns="http://www.w3.org/2000/svg" xmlns:xlink="http://www.w3.org/1999/xlink" x="0px" y="0px"
	 viewBox="0 0 48.9 24.6" enable-background="new 0 0 48.9 24.6" xml:space="preserve">
<g>
	<g opacity="0.8">
		<circle fill="#FFFFFF" cx="4.5" cy="2" r="2"/>
		<path fill="#FFFFFF" d="M2.1,23.5c0,0.6,0.5,1.1,1.1,1.1c0.6,0,1.1-0.5,1.1-1.1l0-9.5h0.5l0,9.5c0,0.6,0.5,1.1,1.1,1.1
			c0.6,0,1.1-0.5,1.1-1.1l0-16.3h0.5v6c0,1.2,1.6,1.2,1.6,0V7.1c0-1.3-0.8-2.6-2.3-2.6l-4.5,0C0.9,4.4,0,5.6,0,7v6.2
			c0,1.2,1.6,1.2,1.6,0v-6h0.5L2.1,23.5z"/>
	</g>
	<g opacity="0.8">
		<circle fill="#FFFFFF" cx="17.8" cy="2" r="2"/>
		<path fill="#FFFFFF" d="M15.4,23.5c0,0.6,0.5,1.1,1.1,1.1c0.6,0,1.1-0.5,1.1-1.1l0-9.5h0.5l0,9.5c0,0.6,0.5,1.1,1.1,1.1
			c0.6,0,1.1-0.5,1.1-1.1l0-16.3H21v6c0,1.2,1.6,1.2,1.6,0V7.1c0-1.3-0.8-2.6-2.3-2.6l-4.5,0c-1.4,0-2.3,1.2-2.3,2.6v6.2
			c0,1.2,1.6,1.2,1.6,0v-6h0.5L15.4,23.5z"/>
	</g>
	<g opacity="0.8">
		<circle fill="#FFFFFF" cx="30.8" cy="2" r="2"/>
		<path fill="#FFFFFF" d="M28.5,23.5c0,0.6,0.5,1.1,1.1,1.1c0.6,0,1.1-0.5,1.1-1.1l0-9.5h0.5l0,9.5c0,0.6,0.5,1.1,1.1,1.1
			c0.6,0,1.1-0.5,1.1-1.1l0-16.3H34v6c0,1.2,1.6,1.2,1.6,0V7.1c0-1.3-0.8-2.6-2.3-2.6l-4.5,0c-1.4,0-2.3,1.2-2.3,2.6v6.2
			c0,1.2,1.6,1.2,1.6,0v-6h0.5L28.5,23.5z"/>
	</g>
	<g opacity="0.8">
		<circle fill="#FFFFFF" cx="44.2" cy="2" r="2"/>
		<path fill="#FFFFFF" d="M41.9,23.5c0,0.6,0.5,1.1,1.1,1.1c0.6,0,1.1-0.5,1.1-1.1l0-9.5h0.5l0,9.5c0,0.6,0.5,1.1,1.1,1.1
			c0.6,0,1.1-0.5,1.1-1.1l0-16.3h0.5v6c0,1.2,1.6,1.2,1.6,0V7.1c0-1.3-0.8-2.6-2.3-2.6l-4.5,0c-1.4,0-2.3,1.2-2.3,2.6v6.2
			c0,1.2,1.6,1.2,1.6,0v-6h0.5L41.9,23.5z"/>
	</g>
</g>
</svg>
