<?xml version="1.0" encoding="utf-8"?>
<!-- Generator: Adobe Illustrator 18.0.0, SVG Export Plug-In . SVG Version: 6.00 Build 0)  -->
<!DOCTYPE svg PUBLIC "-//W3C//DTD SVG 1.1//EN" "http://www.w3.org/Graphics/SVG/1.1/DTD/svg11.dtd">
<svg version="1.1" id="Layer_1" xmlns="http://www.w3.org/2000/svg" xmlns:xlink="http://www.w3.org/1999/xlink" x="0px" y="0px"
	 viewBox="0 0 16.6 28.5" enable-background="new 0 0 16.6 28.5" xml:space="preserve">
<g>
	<path opacity="0.8" fill="#FFFFFF" d="M14.6,0H1.9C0.9,0,0,0.9,0,1.9v24.7c0,1.1,0.9,1.9,1.9,1.9h12.7c1.1,0,1.9-0.9,1.9-1.9V1.9
		C16.6,0.9,15.7,0,14.6,0z M6.3,1.4h4.1c0.1,0,0.2,0.1,0.2,0.2c0,0.1-0.1,0.2-0.2,0.2H6.3C6.1,1.9,6,1.8,6,1.6
		C6,1.5,6.1,1.4,6.3,1.4z M8.3,27.6c-0.5,0-1-0.4-1-1c0-0.5,0.4-1,1-1c0.5,0,1,0.4,1,1C9.2,27.1,8.8,27.6,8.3,27.6z M15.2,25H1.3
		V3.1h13.9V25z"/>
</g>
</svg>
