<?xml version="1.0" encoding="utf-8"?>
<!-- Generator: Adobe Illustrator 18.0.0, SVG Export Plug-In . SVG Version: 6.00 Build 0)  -->
<!DOCTYPE svg PUBLIC "-//W3C//DTD SVG 1.1//EN" "http://www.w3.org/Graphics/SVG/1.1/DTD/svg11.dtd">
<svg version="1.1" id="Layer_1" xmlns="http://www.w3.org/2000/svg" xmlns:xlink="http://www.w3.org/1999/xlink" x="0px" y="0px"
	 viewBox="0 0 46.5 17.2" enable-background="new 0 0 46.5 17.2" xml:space="preserve">
<g id="Layer_2_1_" opacity="0.8">
	<path fill="#FFFFFF" d="M7.1,10c-2,0-3.6,1.6-3.6,3.6c0,2,1.6,3.6,3.6,3.6c2,0,3.6-1.6,3.6-3.6C10.7,11.6,9.1,10,7.1,10z M7.1,15.1
		c-0.8,0-1.5-0.7-1.5-1.5c0-0.8,0.7-1.5,1.5-1.5c0.8,0,1.5,0.7,1.5,1.5C8.6,14.4,8,15.1,7.1,15.1z"/>
	<path fill="#FFFFFF" d="M38.5,10c-2,0-3.6,1.6-3.6,3.6c0,2,1.6,3.6,3.6,3.6c2,0,3.6-1.6,3.6-3.6C42,11.6,40.4,10,38.5,10z
		 M38.5,15.1c-0.8,0-1.5-0.7-1.5-1.5c0-0.8,0.7-1.5,1.5-1.5c0.8,0,1.5,0.7,1.5,1.5C40,14.4,39.3,15.1,38.5,15.1z"/>
	<path fill="#FFFFFF" d="M36.5,4.9c0,0-8.8-4.1-11.6-4.7c-2.8-0.6-12.4-0.1-13.4,0.5L6.1,3.4L0.9,6L0,11c0,0,0,3,0.2,3.6h2.6l0-1.1
		c0-2.4,1.9-4.3,4.3-4.3c2.4,0,4.3,1.9,4.3,4.3l0.1,1.1h22.6l0-1.3c0-2.4,1.8-4.1,4.2-4.1c2.4,0,4.5,1.8,4.5,4.1l0.1,1.2
		c0,0,2.7,0.2,3.6-0.2c0,0,0.3-4.6-1.3-6.2C43.7,6.7,40.7,5.8,36.5,4.9z M12,5.6c0,0,1.1-2.3,2.3-3.2c0.9-0.8,5.8-0.7,5.8-0.7
		l0.2,4.5L12,5.6z M33.4,6.7L21.8,6.2l-0.3-4.6c4.3-0.2,9.2,2.1,12,3.8C36.3,7,33.4,6.7,33.4,6.7z"/>
</g>
</svg>
