<?xml version="1.0" encoding="utf-8"?>
<!-- Generator: Adobe Illustrator 18.0.0, SVG Export Plug-In . SVG Version: 6.00 Build 0)  -->
<!DOCTYPE svg PUBLIC "-//W3C//DTD SVG 1.1//EN" "http://www.w3.org/Graphics/SVG/1.1/DTD/svg11.dtd">
<svg version="1.1" id="Layer_1" xmlns="http://www.w3.org/2000/svg" xmlns:xlink="http://www.w3.org/1999/xlink" x="0px" y="0px"
	 viewBox="0 0 6.5 14" enable-background="new 0 0 6.5 14" xml:space="preserve">
<path fill="#FFFFFF" d="M4.4,3.4c0-0.6,0.1-1,0.9-1h1.2V0H4.6C2.3,0,1.7,1.2,1.7,3.2l0,1.4L0,4.6V7h1.8v7h2.6V7h1.9l0.3-2.4H4.4V3.4
	z"/>
<path fill-rule="evenodd" clip-rule="evenodd" fill="#FFFFFF" d="M56.1,6.2c0.4-0.5,0.8-1.1,1-1.7c0.1-0.4,0-0.6-0.4-0.7
	c-0.1,0-0.1,0-0.2,0l-2.5,0c-0.3,0-0.5,0.1-0.6,0.4c-0.1,0.4-0.3,0.7-0.5,1.1c-0.4,0.8-0.9,1.6-1.5,2.3c-0.1,0.1-0.3,0.3-0.5,0.3
	c-0.3-0.1-0.4-0.6-0.4-0.7l0-2.9c-0.1-0.4-0.1-0.6-0.6-0.7h-2.6c-0.4,0-0.5,0.1-0.7,0.4C46.5,4,46.4,4,46.7,4.1
	c0.4,0.1,0.7,0.4,0.7,0.8c0.1,0.7,0.1,1.4,0,2.1c0,0.2-0.1,0.4-0.1,0.6C47.2,7.9,47,8,46.7,7.8c-0.2-0.2-0.4-0.4-0.6-0.6
	c-0.6-0.9-1.1-1.9-1.5-2.9c-0.1-0.3-0.3-0.5-0.6-0.5c-0.8,0-1.5,0-2.3,0c-0.5,0-0.6,0.2-0.4,0.6c0.8,1.8,1.7,3.6,3,5.3
	c0.6,0.8,1.3,1.6,2.2,2.1c1,0.6,2.2,0.8,3.3,0.7c0.6,0,0.7-0.2,0.7-0.7c0-0.4,0.1-0.8,0.2-1.1c0.2-0.3,0.5-0.4,0.8-0.2
	c0.2,0.1,0.3,0.2,0.4,0.4c0.3,0.3,0.6,0.7,0.9,1c0.4,0.4,0.9,0.7,1.5,0.6l2.3,0c0.4,0,0.6-0.5,0.4-0.9c-0.2-0.3-0.4-0.6-0.6-0.8
	c-0.5-0.6-1-1.1-1.6-1.6c-0.5-0.5-0.5-0.7-0.1-1.3C55.2,7.4,55.7,6.8,56.1,6.2z"/>
</svg>
