<?xml version="1.0" encoding="utf-8"?>
<!-- Generator: Adobe Illustrator 18.0.0, SVG Export Plug-In . SVG Version: 6.00 Build 0)  -->
<!DOCTYPE svg PUBLIC "-//W3C//DTD SVG 1.1//EN" "http://www.w3.org/Graphics/SVG/1.1/DTD/svg11.dtd">
<svg version="1.1" id="Layer_1" xmlns="http://www.w3.org/2000/svg" xmlns:xlink="http://www.w3.org/1999/xlink" x="0px" y="0px"
	 viewBox="0 0 34.2 25.8" enable-background="new 0 0 34.2 25.8" xml:space="preserve">
<g>
	<path opacity="0.8" fill="#FFFFFF" d="M0,0v25.7h6.8v-5.1h3.4v5.1h6.8V0H0z M5.1,16.3H1.7v-5.1h3.4V16.3z M5.1,7.7H1.7V2.6h3.4V7.7
		z M10.3,16.3H6.8v-5.1h3.4V16.3z M10.3,7.7H6.8V2.6h3.4V7.7z M15.4,16.3H12v-5.1h3.4V16.3z M15.4,7.7H12V2.6h3.4V7.7z"/>
	<g opacity="0.8">
		<path fill="#FFFFFF" d="M31.2,7.3l-3.1-6.2l0,0c0-0.3-0.2-0.5-0.5-0.6c0,0-0.1,0-0.1,0c0,0,0,0,0,0c0,0,0,0,0,0c0,0-0.1,0-0.1,0
			c-0.3,0.1-0.5,0.3-0.5,0.6l0,0l-3.1,6.2c-0.1,0.2-0.1,0.4,0,0.6c0.1,0.2,0.3,0.3,0.5,0.3h2.9h0.5h2.9c0.2,0,0.4-0.1,0.5-0.3
			C31.3,7.7,31.3,7.5,31.2,7.3z"/>
		<path fill="#FFFFFF" d="M32.8,13.6l-4.4-8.8l0,0c0-0.4-0.3-0.7-0.7-0.8c-0.1,0-0.1,0-0.2,0c0,0,0,0-0.1,0c0,0,0,0-0.1,0
			c-0.1,0-0.1,0-0.2,0c-0.4,0.1-0.7,0.4-0.7,0.8l0,0l-4.4,8.8c-0.1,0.3-0.1,0.6,0,0.9c0.2,0.3,0.4,0.4,0.7,0.4h4.2h0.8H32
			c0.3,0,0.6-0.2,0.7-0.4C32.9,14.2,32.9,13.9,32.8,13.6z"/>
		<path fill="#FFFFFF" d="M34.1,20.1L28.6,9.1l0-0.1c0-0.5-0.4-0.9-0.9-1c-0.1,0-0.2,0-0.2,0c0,0,0,0-0.1,0c0,0,0,0-0.1,0
			c-0.1,0-0.2,0-0.2,0c-0.5,0.1-0.8,0.5-0.9,1l0,0.1l-5.5,10.9c-0.2,0.3-0.2,0.7,0,1.1c0.2,0.3,0.5,0.5,0.9,0.5H27h1h5.2
			c0.4,0,0.7-0.2,0.9-0.5C34.2,20.8,34.3,20.4,34.1,20.1z"/>
		<path fill="#FFFFFF" d="M28.5,24.2c0,0.9-0.6,1.6-1.2,1.6h-0.1c-0.7,0-1.2-0.7-1.2-1.6v-2.5c0-0.9,0.6-1.6,1.2-1.6h0.1
			c0.7,0,1.2,0.7,1.2,1.6V24.2z"/>
	</g>
</g>
</svg>
