<?xml version="1.0" encoding="utf-8"?>
<!-- Generator: Adobe Illustrator 18.0.0, SVG Export Plug-In . SVG Version: 6.00 Build 0)  -->
<!DOCTYPE svg PUBLIC "-//W3C//DTD SVG 1.1//EN" "http://www.w3.org/Graphics/SVG/1.1/DTD/svg11.dtd">
<svg version="1.1" id="Layer_1" xmlns="http://www.w3.org/2000/svg" xmlns:xlink="http://www.w3.org/1999/xlink" x="0px" y="0px"
	 viewBox="0 0 16 9.1" enable-background="new 0 0 16 9.1" xml:space="preserve">
<path fill="#FFFFFF" d="M-36.8-0.1c0-0.6,0.1-1,0.9-1h1.2v-2.4h-1.9c-2.3,0-2.9,1.2-2.9,3.2l0,1.4l-1.8,0v2.4h1.8v7h2.6v-7h1.9
	l0.3-2.4h-2.2V-0.1z"/>
<path fill-rule="evenodd" clip-rule="evenodd" fill="#FFFFFF" d="M14.9,2.7c0.4-0.5,0.8-1.1,1-1.7c0.1-0.4,0-0.6-0.4-0.7
	c-0.1,0-0.1,0-0.2,0l-2.5,0c-0.3,0-0.5,0.1-0.6,0.4c-0.1,0.4-0.3,0.7-0.5,1.1c-0.4,0.8-0.9,1.6-1.5,2.3c-0.1,0.1-0.3,0.3-0.5,0.3
	C9.4,4.3,9.3,3.8,9.3,3.6l0-2.9C9.3,0.3,9.2,0.1,8.8,0H6.1C5.8,0,5.6,0.1,5.4,0.4C5.3,0.5,5.3,0.6,5.5,0.6C5.9,0.7,6.2,1,6.2,1.4
	c0.1,0.7,0.1,1.4,0,2.1c0,0.2-0.1,0.4-0.1,0.6C6,4.4,5.8,4.5,5.5,4.3C5.3,4.1,5.1,3.9,4.9,3.7C4.3,2.8,3.8,1.8,3.4,0.8
	C3.3,0.5,3.1,0.3,2.8,0.3c-0.8,0-1.5,0-2.3,0C0,0.3-0.1,0.5,0.1,1c0.8,1.8,1.7,3.6,3,5.3c0.6,0.8,1.3,1.6,2.2,2.1
	c1,0.6,2.2,0.8,3.3,0.7c0.6,0,0.7-0.2,0.7-0.7c0-0.4,0.1-0.8,0.2-1.1c0.2-0.3,0.5-0.4,0.8-0.2c0.2,0.1,0.3,0.2,0.4,0.4
	c0.3,0.3,0.6,0.7,0.9,1c0.4,0.4,0.9,0.7,1.5,0.6l2.3,0c0.4,0,0.6-0.5,0.4-0.9c-0.2-0.3-0.4-0.6-0.6-0.8c-0.5-0.6-1-1.1-1.6-1.6
	c-0.5-0.5-0.5-0.7-0.1-1.3C14.1,3.9,14.5,3.3,14.9,2.7z"/>
</svg>
